Coordinates
version=1
nRows=4
nColumns=40
inDegrees=yes

Units are S.I. units (second, meters, Newtons, ...)
If the header above contains a line with 'inDegrees', this indicates whether rotational values are in degrees (yes) or radians (no).

endheader
time	pelvis_tilt	pelvis_list	pelvis_rotation	pelvis_tx	pelvis_ty	pelvis_tz	hip_flexion_r	hip_adduction_r	hip_rotation_r	knee_angle_r	knee_angle_r_beta	ankle_angle_r	subtalar_angle_r	mtp_angle_r	hip_flexion_l	hip_adduction_l	hip_rotation_l	knee_angle_l	knee_angle_l_beta	ankle_angle_l	subtalar_angle_l	mtp_angle_l	lumbar_extension	lumbar_bending	lumbar_rotation	arm_flex_r	arm_add_r	arm_rot_r	elbow_flex_r	pro_sup_r	wrist_flex_r	wrist_dev_r	arm_flex_l	arm_add_l	arm_rot_l	elbow_flex_l	pro_sup_l	wrist_flex_l	wrist_dev_l
      5.75999999999999978684	     47.20107791223549753568	      2.03151988379183690014	   -176.76191717067848685474	      0.39198911121781843114	      0.79291424800538157225	     -0.61654354434205427271	     78.13606328068071604775	     -8.61426884688399496781	     -6.44157579350986253530	     26.22986109750032923671	      0.45779743849215415175	     -3.99050339077562998824	      0.00000000000000000000	      0.00000000000000000000	     76.92527354514042770006	     -4.12979738390891704114	     -2.53180465051784686636	     22.25970868066935892671	      0.38850520701244334321	     -8.18320751219039088653	      0.00000000000000000000	      0.00000000000000000000	    -13.76236782403734437707	      1.73198789758382165616	      2.99452113401587283192	     48.64260681958580079254	    -10.38251195088073330908	     59.82810736073587776218	      0.76044693695862819460	     83.59324824591277547370	      0.00000000000000000000	      0.00000000000000000000	     39.73839457360459448410	     -3.67925660793605624477	     78.45752303218301904053	      0.51138600136088374626	      2.28247750941171334560	      0.00000000000000000000	      0.00000000000000000000
      5.76499999999999968026	     46.83129678049703414899	      2.32383509443384728144	   -176.38681208504709729823	      0.39132899341476923283	      0.79374232752186546502	     -0.61623599259364836289	     77.68962819016668674976	     -8.90830328448326014268	     -6.92932524026003626716	     26.36995372100322398978	      0.46024251603003646371	     -3.78399605474083911005	      0.00000000000000000000	      0.00000000000000000000	     76.47559786622635158437	     -3.84256690487103291787	     -1.98212794323491436899	     22.02352500805427482078	      0.38438302428585779946	     -8.36644979975832114860	      0.00000000000000000000	      0.00000000000000000000	    -13.76265364040513006216	      2.17762995801219183534	      2.66898119780461939854	     48.42623979026927827363	    -10.40262122969075875289	     61.04955234513495554438	      0.76197309965001569498	     83.80164829671929282995	      0.00000000000000000000	      0.00000000000000000000	     39.52250115625306392531	     -3.68980593066971129801	     78.11982397314859838389	      0.51889443714822192089	      2.29484466744223825074	      0.00000000000000000000	      0.00000000000000000000
      5.76999999999999957367	     46.80926727811676357760	      2.25036619301722717879	   -176.60971533483885309579	      0.39111147924436923118	      0.79398585422238099341	     -0.61704008164608592502	     77.68315611426086775282	     -8.60278945465370625811	     -6.56064946434869167291	     26.34415926021040021965	      0.45979231776042506219	     -3.92783911526860540775	      0.00000000000000000000	      0.00000000000000000000	     76.45605575680635013214	     -4.09962449587397514961	     -2.17252030889912361999	     22.16845342115754746715	      0.38691250227420037611	     -8.16712465806541310087	      0.00000000000000000000	      0.00000000000000000000	    -13.33371530813995597953	      1.88768062891073240550	      3.04652143069977299206	     48.00125684804287118368	    -10.46701643921621993627	     60.39054977922913280963	      0.77294214218406520622	     83.59459507842389314192	      0.00000000000000000000	      0.00000000000000000000	     39.29540767529078948428	     -3.77674005888019115318	     79.17136927760039100122	      0.51460702387460399709	      2.29706054042322138642	      0.00000000000000000000	      0.00000000000000000000
      5.77500000000000035527	     46.50074902337902216232	      2.36603736421904109477	   -176.32942036176947908643	      0.39057266500840071011	      0.79464518290707264470	     -0.61682373820870040060	     77.34852266884935545477	     -8.83055926416744441099	     -6.72639501648412885260	     26.50455087727899083916	      0.46259167957086994027	     -3.70279100001366057171	      0.00000000000000000000	      0.00000000000000000000	     76.07935080814824857498	     -3.87108159278821650773	     -1.94915641709916021007	     22.01080010047120438799	      0.38416093275152118913	     -8.33200747395023455510	      0.00000000000000000000	      0.00000000000000000000	    -13.21897044783928976130	      2.04752432634532288702	      2.85555278283984215193	     47.69945876512367988198	    -10.52059490380155537537	     61.36947732081281969840	      0.77294795050852005414	     83.06031723892684226485	      0.00000000000000000000	      0.00000000000000000000	     39.00046727942655166999	     -3.89935141435959442546	     80.24091043899974806664	      0.50616409530084671697	      2.35938523028439250950	      0.00000000000000000000	      0.00000000000000000000
